<?xml version="1.0" standalone="no"?>
<!DOCTYPE svg PUBLIC "-//W3C//DTD SVG 20010904//EN"
 "http://www.w3.org/TR/2001/REC-SVG-20010904/DTD/svg10.dtd">
<svg version="1.0" xmlns="http://www.w3.org/2000/svg"
 width="1024.000000pt" height="1024.000000pt" viewBox="0 0 1024.000000 1024.000000"
 preserveAspectRatio="xMidYMid meet">

<g transform="translate(0.000000,1024.000000) scale(0.100000,-0.100000)"
fill="#000000" stroke="none">
<path d="M3901 8345 c-82 -18 -171 -61 -246 -118 -94 -72 -1150 -1136 -1173
-1182 -55 -111 -52 36 -52 -2280 0 -2360 -5 -2180 66 -2315 85 -162 242 -285
422 -331 72 -18 123 -19 1384 -19 719 0 1308 2 1308 5 0 3 -34 68 -76 145
l-76 140 -1177 0 c-747 0 -1198 4 -1232 10 -132 25 -255 121 -299 235 l-23 60
-5 1992 -4 1992 388 3 389 4 73 26 c161 58 297 173 369 313 79 154 78 148 78
618 l0 417 1445 -2 1445 -3 67 -33 c84 -41 167 -128 200 -209 l23 -58 3 -1115
2 -1115 155 -78 c85 -42 157 -77 160 -77 3 0 5 533 5 1186 0 1313 3 1256 -66
1400 -93 196 -256 332 -462 385 -73 18 -124 19 -1551 18 -1216 0 -1487 -3
-1540 -14z m-193 -845 c-3 -263 -3 -266 -29 -321 -35 -75 -96 -134 -177 -172
l-67 -32 -314 -3 -314 -3 439 441 c241 242 443 448 449 458 14 24 17 -49 13
-368z"/>
<path d="M3737 6530 c-20 -4 -49 -18 -64 -31 -49 -46 -53 -69 -53 -336 0 -277
4 -297 69 -340 l34 -23 1396 0 c1333 0 1398 1 1430 18 67 36 71 55 71 345 0
287 -4 307 -64 350 l-31 22 -1375 1 c-756 1 -1392 -1 -1413 -6z"/>
<path d="M3383 5424 c-43 -15 -58 -28 -77 -68 -32 -68 -11 -151 46 -186 33
-20 43 -20 1275 -18 l1243 3 36 37 c64 63 57 166 -14 217 -29 20 -40 20 -1253
23 -893 2 -1232 0 -1256 -8z"/>
<path d="M6733 5336 c-292 -56 -527 -246 -634 -512 -49 -122 -59 -199 -59
-455 l0 -229 -72 0 c-88 0 -142 -23 -193 -83 -67 -78 -66 -62 -63 -878 l3
-734 28 -56 c32 -66 99 -132 165 -162 47 -22 48 -22 959 -25 902 -2 912 -2
967 18 73 28 139 93 179 178 l32 67 3 723 c2 482 -1 735 -8 761 -31 115 -129
191 -252 192 l-66 1 -5 267 c-4 238 -6 274 -26 341 -81 271 -306 492 -581 570
-97 27 -278 35 -377 16z m302 -336 c164 -56 301 -206 339 -370 12 -47 16 -122
16 -272 l0 -208 -510 0 -510 0 0 203 c0 242 8 299 57 397 109 223 373 331 608
250z m-59 -1395 c87 -35 154 -137 154 -236 0 -78 -22 -134 -76 -192 l-47 -49
6 -107 c3 -58 11 -145 18 -192 11 -78 11 -89 -4 -113 -23 -35 -84 -49 -186
-44 -74 4 -86 7 -104 29 -21 26 -21 37 4 264 7 66 9 132 6 148 -4 15 -27 48
-52 72 -43 44 -75 116 -75 170 0 42 28 126 55 165 63 91 194 128 301 85z"/>
<path d="M3362 4650 c-68 -42 -89 -117 -52 -189 38 -76 -43 -71 1187 -71 1071
0 1099 1 1130 20 91 55 93 178 4 237 l-34 23 -1101 0 c-1081 0 -1102 0 -1134
-20z"/>
<path d="M3371 3912 c-55 -27 -76 -64 -76 -132 0 -51 4 -63 29 -89 15 -16 40
-34 55 -40 18 -8 309 -11 981 -9 937 3 956 3 982 23 82 60 75 191 -14 245 -32
20 -53 20 -978 20 -880 0 -947 -1 -979 -18z"/>
<path d="M3370 3152 c-101 -51 -107 -199 -9 -257 33 -20 52 -20 789 -20 708 0
757 1 788 18 96 53 96 198 0 257 -32 19 -52 20 -783 20 -694 0 -753 -1 -785
-18z"/>
</g>
</svg>
